<mxfile host="app.diagrams.net" agent="Mozilla/5.0 (Windows NT 10.0; Win64; x64) AppleWebKit/537.36 (KHTML, like Gecko) Chrome/140.0.0.0 Safari/537.36" version="26.0.4">
  <diagram name="Страница — 1" id="p_RCoO81SBgtMyNY2JIU">
    <mxGraphModel dx="1562" dy="810" grid="1" gridSize="10" guides="1" tooltips="1" connect="1" arrows="1" fold="1" page="1" pageScale="1" pageWidth="827" pageHeight="1169" math="0" shadow="0">
      <root>
        <mxCell id="0" />
        <mxCell id="1" parent="0" />
        <mxCell id="JtEJmJfWgiZlbh6Ts86B-3" value="" style="edgeStyle=orthogonalEdgeStyle;rounded=0;orthogonalLoop=1;jettySize=auto;html=1;" edge="1" parent="1" source="JtEJmJfWgiZlbh6Ts86B-1" target="JtEJmJfWgiZlbh6Ts86B-2">
          <mxGeometry relative="1" as="geometry" />
        </mxCell>
        <mxCell id="JtEJmJfWgiZlbh6Ts86B-1" value="" style="ellipse;whiteSpace=wrap;html=1;aspect=fixed;" vertex="1" parent="1">
          <mxGeometry x="374" y="40" width="20" height="20" as="geometry" />
        </mxCell>
        <mxCell id="JtEJmJfWgiZlbh6Ts86B-2" value="" style="rounded=1;whiteSpace=wrap;html=1;" vertex="1" parent="1">
          <mxGeometry x="324" y="120" width="120" height="60" as="geometry" />
        </mxCell>
      </root>
    </mxGraphModel>
  </diagram>
</mxfile>
